<svg width="100" height="100" viewBox="0 0 100 100" fill="none" xmlns="http://www.w3.org/2000/svg">
<rect width="100" height="100" rx="8" fill="black"/>
<path d="M16.6668 46.6666L23.5002 47C23.904 43.3515 25.0605 39.8264 26.8965 36.6478C28.7326 33.4692 31.2082 30.7061 34.1668 28.5333L30.4335 22.8C29.5335 21.2 30.0002 19.1666 31.6668 18.2333C33.3335 17.3333 35.3002 17.8666 36.2335 19.4666L39.3335 25.5333C42.703 24.0843 46.3323 23.337 50.0002 23.337C53.668 23.337 57.2974 24.0843 60.6668 25.5333L63.7668 19.4666C64.7002 17.8666 66.6668 17.3333 68.3335 18.2333C70.0002 19.1666 70.4668 21.2 69.5668 22.8L65.8335 28.5333C68.7921 30.7061 71.2677 33.4692 73.1038 36.6478C74.9398 39.8264 76.0963 43.3515 76.5002 47L83.3335 46.6666C84.2176 46.6666 85.0654 47.0178 85.6905 47.6429C86.3156 48.2681 86.6668 49.1159 86.6668 50C86.6668 50.884 86.3156 51.7319 85.6905 52.357C85.0654 52.9821 84.2176 53.3333 83.3335 53.3333L76.5002 53C76.0963 56.6485 74.9398 60.1735 73.1038 63.3521C71.2677 66.5307 68.7921 69.2938 65.8335 71.4666L69.5668 77.2C70.4668 78.8 70.0002 80.8333 68.3335 81.7666C66.6668 82.6666 64.7002 82.1333 63.7668 80.5333L60.6668 74.4666C57.2974 75.9156 53.668 76.663 50.0002 76.663C46.3323 76.663 42.703 75.9156 39.3335 74.4666L36.2335 80.5333C35.3002 82.1333 33.3335 82.6666 31.6668 81.7666C30.0002 80.8333 29.5335 78.8 30.4335 77.2L34.1668 71.4666C31.2082 69.2938 28.7326 66.5307 26.8965 63.3521C25.0605 60.1735 23.904 56.6485 23.5002 53L16.6668 53.3333C15.7828 53.3333 14.9349 52.9821 14.3098 52.357C13.6847 51.7319 13.3335 50.884 13.3335 50C13.3335 49.1159 13.6847 48.2681 14.3098 47.6429C14.9349 47.0178 15.7828 46.6666 16.6668 46.6666ZM40.2335 47.8333C40.6668 45.8 41.7668 44 43.3335 42.6333L37.8002 34.1666C33.62 37.3781 30.8767 42.11 30.1668 47.3333L40.2335 47.8333ZM50.0002 40C51.0668 40 52.0668 40.1666 53.0002 40.4666L57.6002 31.5C55.2668 30.5333 52.7002 30 50.0002 30C47.3002 30 44.7335 30.5333 42.4002 31.5L47.0002 40.4666C47.9335 40.1666 48.9335 40 50.0002 40ZM59.7668 47.8333L69.8335 47.3333C69.1236 42.11 66.3803 37.3781 62.2002 34.1666L56.6668 42.6333C58.2335 44 59.3335 45.8 59.7668 47.8333ZM59.7668 52.1666C59.3335 54.2 58.2335 56 56.6668 57.3666L62.2002 65.8333C66.3803 62.6219 69.1236 57.89 69.8335 52.6666L59.7668 52.1666ZM50.0002 60C48.9335 60 47.9335 59.8333 46.9668 59.5333L42.4002 68.5C44.7335 69.4666 47.3002 70 50.0002 70C52.7002 70 55.2668 69.4666 57.6002 68.5L53.0335 59.5333C52.0668 59.8333 51.0668 60 50.0002 60ZM40.2335 52.1666L30.1668 52.6666C30.9002 58 33.7002 62.7 37.8002 65.8333L43.3335 57.3666C41.7668 56 40.6668 54.2 40.2335 52.1666Z" fill="#3175FF"/>
<circle cx="50" cy="50" r="4" fill="black"/>
</svg>
